<svg xmlns="http://www.w3.org/2000/svg" width="1200" height="480" viewBox="0 0 1200 480" role="img" aria-labelledby="bn-title">
  <title id="bn-title">Doritos0 - skyline brutalista violeta</title>
  <defs>
    <linearGradient id="bn-sky" x1="0" y1="0" x2="0" y2="1">
      <stop offset="0%" stop-color="#06030d"/>
      <stop offset="45%" stop-color="#1f1133"/>
      <stop offset="80%" stop-color="#3d2050"/>
      <stop offset="100%" stop-color="#6b4ba0"/>
    </linearGradient>
    <radialGradient id="bn-moon" cx="50%" cy="50%" r="50%">
      <stop offset="0%" stop-color="#f1e6ff" stop-opacity="0.85"/>
      <stop offset="60%" stop-color="#A78BCA" stop-opacity="0.18"/>
      <stop offset="100%" stop-color="#A78BCA" stop-opacity="0"/>
    </radialGradient>
    <linearGradient id="bn-smog" x1="0" y1="0" x2="0" y2="1">
      <stop offset="0%" stop-color="#C9A8D6" stop-opacity="0"/>
      <stop offset="50%" stop-color="#A78BCA" stop-opacity="0.18"/>
      <stop offset="100%" stop-color="#E8D5FF" stop-opacity="0.42"/>
    </linearGradient>
    <linearGradient id="bn-concrete" x1="0" y1="0" x2="0" y2="1">
      <stop offset="0%" stop-color="#1a0a2e"/>
      <stop offset="55%" stop-color="#150a26"/>
      <stop offset="100%" stop-color="#06030d"/>
    </linearGradient>
    <linearGradient id="bn-concrete-side" x1="0" y1="0" x2="1" y2="0">
      <stop offset="0%" stop-color="#06030d"/>
      <stop offset="50%" stop-color="#2d1b4e"/>
      <stop offset="100%" stop-color="#06030d"/>
    </linearGradient>
    <linearGradient id="bn-name" x1="0" y1="0" x2="0" y2="1">
      <stop offset="0%" stop-color="#f4e7ff"/>
      <stop offset="55%" stop-color="#C9A8D6"/>
      <stop offset="100%" stop-color="#6b4ba0"/>
    </linearGradient>
    <radialGradient id="bn-sign-light" cx="50%" cy="50%" r="50%">
      <stop offset="0%" stop-color="#C9A8D6" stop-opacity="0.35"/>
      <stop offset="100%" stop-color="#C9A8D6" stop-opacity="0"/>
    </radialGradient>
    <filter id="bn-neon" x="-30%" y="-30%" width="160%" height="160%">
      <feGaussianBlur stdDeviation="5" result="b1"/>
      <feGaussianBlur stdDeviation="2" result="b2"/>
      <feMerge>
        <feMergeNode in="b1"/>
        <feMergeNode in="b2"/>
        <feMergeNode in="SourceGraphic"/>
      </feMerge>
    </filter>
    <filter id="bn-window-glow"><feGaussianBlur stdDeviation="0.9"/></filter>
  </defs>

  <!-- Sky -->
  <rect width="1200" height="480" fill="url(#bn-sky)"/>

  <!-- Stars (very sparse, industrial sky) -->
  <g fill="#D8C5F0" opacity="0.55">
    <circle cx="80" cy="40" r="0.5"/>
    <circle cx="380" cy="20" r="0.5"/>
    <circle cx="540" cy="50" r="0.4"/>
    <circle cx="700" cy="25" r="0.5"/>
    <circle cx="860" cy="40" r="0.4"/>
    <circle cx="1020" cy="22" r="0.5"/>
    <circle cx="1140" cy="55" r="0.4"/>
  </g>

  <!-- Cold pale moon -->
  <circle cx="990" cy="92" r="80" fill="url(#bn-moon)"/>
  <circle cx="990" cy="92" r="34" fill="#E8D5FF" opacity="0.15"/>
  <circle cx="990" cy="92" r="18" fill="#f4e7ff" opacity="0.6"/>

  <!-- Power lines crossing -->
  <g stroke="#5d3a8a" stroke-width="0.45" opacity="0.7" fill="none">
    <path d="M 0 84 Q 600 102 1200 78"/>
    <path d="M 0 108 Q 600 130 1200 102"/>
    <path d="M 0 130 Q 600 154 1200 124"/>
  </g>

  <!-- Far smog band -->
  <rect x="0" y="180" width="1200" height="80" fill="#3d2050" opacity="0.35"/>
  <ellipse cx="600" cy="220" rx="700" ry="28" fill="#6b4ba0" opacity="0.25"/>

  <!-- Background distant slabs (very faint) -->
  <g fill="#06030d" opacity="0.65">
    <rect x="0" y="230" width="60" height="200"/>
    <rect x="160" y="240" width="50" height="190"/>
    <rect x="1140" y="245" width="60" height="185"/>
  </g>
  <!-- tiny windows in distant slabs -->
  <g fill="#3d2050" opacity="0.7">
    <rect x="10" y="248" width="3" height="6"/><rect x="20" y="248" width="3" height="6"/><rect x="30" y="248" width="3" height="6"/><rect x="40" y="248" width="3" height="6"/>
    <rect x="10" y="262" width="3" height="6"/><rect x="20" y="262" width="3" height="6"/><rect x="30" y="262" width="3" height="6"/><rect x="40" y="262" width="3" height="6"/>
    <rect x="10" y="276" width="3" height="6"/><rect x="30" y="276" width="3" height="6"/><rect x="40" y="276" width="3" height="6"/>
    <rect x="1150" y="262" width="3" height="6"/><rect x="1160" y="262" width="3" height="6"/><rect x="1170" y="262" width="3" height="6"/>
    <rect x="1150" y="276" width="3" height="6"/><rect x="1160" y="276" width="3" height="6"/><rect x="1170" y="276" width="3" height="6"/>
  </g>

  <!-- ===================== BUILDING 1: tall slab left ===================== -->
  <g>
    <!-- Antenna -->
    <rect x="138" y="92" width="6" height="12" fill="#06030d"/>
    <line x1="141" y1="92" x2="141" y2="28" stroke="#3d2050" stroke-width="1"/>
    <line x1="135" y1="48" x2="147" y2="48" stroke="#3d2050" stroke-width="0.7"/>
    <line x1="137" y1="58" x2="145" y2="58" stroke="#3d2050" stroke-width="0.7"/>
    <line x1="139" y1="68" x2="143" y2="68" stroke="#3d2050" stroke-width="0.6"/>
    <circle cx="141" cy="28" r="1.5" fill="#C9A8D6"/>

    <!-- Body -->
    <rect x="60" y="104" width="160" height="316" fill="url(#bn-concrete)"/>
    <rect x="60" y="104" width="160" height="316" fill="none" stroke="#06030d" stroke-width="1"/>

    <!-- Vertical panel seams -->
    <g stroke="#06030d" stroke-width="0.6" opacity="0.9">
      <line x1="100" y1="104" x2="100" y2="420"/>
      <line x1="140" y1="104" x2="140" y2="420"/>
      <line x1="180" y1="104" x2="180" y2="420"/>
    </g>
    <!-- Horizontal floor lines -->
    <g stroke="#2d1b4e" stroke-width="0.4" opacity="0.6">
      <line x1="60" y1="136" x2="220" y2="136"/>
      <line x1="60" y1="168" x2="220" y2="168"/>
      <line x1="60" y1="200" x2="220" y2="200"/>
      <line x1="60" y1="232" x2="220" y2="232"/>
      <line x1="60" y1="264" x2="220" y2="264"/>
      <line x1="60" y1="296" x2="220" y2="296"/>
      <line x1="60" y1="328" x2="220" y2="328"/>
      <line x1="60" y1="360" x2="220" y2="360"/>
      <line x1="60" y1="392" x2="220" y2="392"/>
    </g>

    <!-- Windows: 4 cols x 10 rows = 40 windows -->
    <g fill="#04020a">
      <!-- F1 -->
      <rect x="72" y="114" width="22" height="14"/><rect x="106" y="114" width="22" height="14"/><rect x="152" y="114" width="22" height="14"/><rect x="186" y="114" width="22" height="14"/>
      <!-- F2 -->
      <rect x="72" y="146" width="22" height="14"/><rect x="106" y="146" width="22" height="14"/><rect x="152" y="146" width="22" height="14"/><rect x="186" y="146" width="22" height="14"/>
      <!-- F3 -->
      <rect x="72" y="178" width="22" height="14"/><rect x="106" y="178" width="22" height="14"/><rect x="152" y="178" width="22" height="14"/><rect x="186" y="178" width="22" height="14"/>
      <!-- F4 -->
      <rect x="72" y="210" width="22" height="14"/><rect x="106" y="210" width="22" height="14"/><rect x="152" y="210" width="22" height="14"/><rect x="186" y="210" width="22" height="14"/>
      <!-- F5 -->
      <rect x="72" y="242" width="22" height="14"/><rect x="106" y="242" width="22" height="14"/><rect x="152" y="242" width="22" height="14"/><rect x="186" y="242" width="22" height="14"/>
      <!-- F6 -->
      <rect x="72" y="274" width="22" height="14"/><rect x="106" y="274" width="22" height="14"/><rect x="152" y="274" width="22" height="14"/><rect x="186" y="274" width="22" height="14"/>
      <!-- F7 -->
      <rect x="72" y="306" width="22" height="14"/><rect x="106" y="306" width="22" height="14"/><rect x="152" y="306" width="22" height="14"/><rect x="186" y="306" width="22" height="14"/>
      <!-- F8 -->
      <rect x="72" y="338" width="22" height="14"/><rect x="106" y="338" width="22" height="14"/><rect x="152" y="338" width="22" height="14"/><rect x="186" y="338" width="22" height="14"/>
      <!-- F9 -->
      <rect x="72" y="370" width="22" height="14"/><rect x="106" y="370" width="22" height="14"/><rect x="152" y="370" width="22" height="14"/><rect x="186" y="370" width="22" height="14"/>
      <!-- F10 -->
      <rect x="72" y="402" width="22" height="14"/><rect x="106" y="402" width="22" height="14"/><rect x="152" y="402" width="22" height="14"/><rect x="186" y="402" width="22" height="14"/>
    </g>
    <!-- Lit windows -->
    <g fill="#E8D5FF" filter="url(#bn-window-glow)" opacity="0.9">
      <rect x="106" y="146" width="22" height="14"/>
      <rect x="186" y="178" width="22" height="14"/>
      <rect x="72" y="242" width="22" height="14"/>
      <rect x="152" y="306" width="22" height="14"/>
      <rect x="106" y="370" width="22" height="14"/>
    </g>
    <g fill="#C9A8D6" opacity="0.75">
      <rect x="72" y="178" width="22" height="14"/>
      <rect x="152" y="242" width="22" height="14"/>
      <rect x="106" y="338" width="22" height="14"/>
      <rect x="186" y="402" width="22" height="14"/>
    </g>
  </g>

  <!-- ===================== SMOKESTACK ===================== -->
  <g>
    <!-- Smoke plume -->
    <g fill="#A78BCA" opacity="0.32">
      <ellipse cx="244" cy="48" rx="22" ry="9"/>
      <ellipse cx="260" cy="32" rx="32" ry="11"/>
      <ellipse cx="252" cy="14" rx="44" ry="14"/>
      <ellipse cx="284" cy="-2" rx="56" ry="16"/>
    </g>
    <!-- Stack body -->
    <rect x="232" y="68" width="22" height="352" fill="url(#bn-concrete-side)"/>
    <rect x="228" y="64" width="30" height="8" fill="#1a0a2e" stroke="#06030d" stroke-width="0.5"/>
    <!-- Warning bands -->
    <rect x="232" y="92" width="22" height="6" fill="#06030d"/>
    <rect x="232" y="150" width="22" height="6" fill="#06030d"/>
    <rect x="232" y="208" width="22" height="6" fill="#06030d"/>
    <!-- Aircraft warning light -->
    <circle cx="243" cy="72" r="1.6" fill="#f4e7ff" filter="url(#bn-window-glow)"/>
  </g>

  <!-- ===================== BUILDING 2: central main block with name sign ===================== -->
  <g>
    <!-- Name sign light halo -->
    <ellipse cx="600" cy="180" rx="380" ry="60" fill="url(#bn-sign-light)"/>

    <!-- Sign support frame -->
    <g>
      <line x1="362" y1="244" x2="362" y2="232" stroke="#06030d" stroke-width="3"/>
      <line x1="478" y1="244" x2="478" y2="232" stroke="#06030d" stroke-width="3"/>
      <line x1="600" y1="244" x2="600" y2="232" stroke="#06030d" stroke-width="3"/>
      <line x1="722" y1="244" x2="722" y2="232" stroke="#06030d" stroke-width="3"/>
      <line x1="838" y1="244" x2="838" y2="232" stroke="#06030d" stroke-width="3"/>
      <!-- Cross beam under sign -->
      <rect x="320" y="228" width="560" height="6" fill="#1a0a2e"/>
      <!-- Sign plate -->
      <rect x="320" y="138" width="560" height="90" fill="#06030d" stroke="#3d2050" stroke-width="0.9"/>
      <rect x="320" y="138" width="560" height="90" fill="none" stroke="#2d1b4e" stroke-width="0.4" opacity="0.6"/>
      <!-- Inner panel -->
      <rect x="328" y="146" width="544" height="74" fill="#0a0510" stroke="#2d1b4e" stroke-width="0.4"/>
      <!-- Bolts in corners -->
      <circle cx="332" cy="142" r="1.6" fill="#3d2050"/>
      <circle cx="868" cy="142" r="1.6" fill="#3d2050"/>
      <circle cx="332" cy="224" r="1.6" fill="#3d2050"/>
      <circle cx="868" cy="224" r="1.6" fill="#3d2050"/>
    </g>

    <!-- Building body -->
    <rect x="290" y="244" width="620" height="176" fill="url(#bn-concrete)"/>
    <rect x="290" y="244" width="620" height="176" fill="none" stroke="#06030d" stroke-width="1"/>

    <!-- Panel seams vertical -->
    <g stroke="#06030d" stroke-width="0.7" opacity="0.85">
      <line x1="362" y1="244" x2="362" y2="420"/>
      <line x1="434" y1="244" x2="434" y2="420"/>
      <line x1="506" y1="244" x2="506" y2="420"/>
      <line x1="578" y1="244" x2="578" y2="420"/>
      <line x1="650" y1="244" x2="650" y2="420"/>
      <line x1="722" y1="244" x2="722" y2="420"/>
      <line x1="794" y1="244" x2="794" y2="420"/>
      <line x1="866" y1="244" x2="866" y2="420"/>
    </g>
    <!-- Horizontal floor lines -->
    <g stroke="#2d1b4e" stroke-width="0.4" opacity="0.6">
      <line x1="290" y1="280" x2="910" y2="280"/>
      <line x1="290" y1="316" x2="910" y2="316"/>
      <line x1="290" y1="352" x2="910" y2="352"/>
      <line x1="290" y1="388" x2="910" y2="388"/>
    </g>

    <!-- Windows: 9 cols x 5 rows = 45 -->
    <g fill="#04020a">
      <!-- helper: cols at 300, 372, 444, 516, 588, 660, 732, 804, 876 -->
      <!-- F1 y=254 -->
      <rect x="304" y="254" width="50" height="22"/><rect x="376" y="254" width="50" height="22"/><rect x="448" y="254" width="50" height="22"/><rect x="520" y="254" width="50" height="22"/><rect x="592" y="254" width="50" height="22"/><rect x="664" y="254" width="50" height="22"/><rect x="736" y="254" width="50" height="22"/><rect x="808" y="254" width="50" height="22"/><rect x="876" y="254" width="30" height="22"/>
      <!-- F2 y=290 -->
      <rect x="304" y="290" width="50" height="22"/><rect x="376" y="290" width="50" height="22"/><rect x="448" y="290" width="50" height="22"/><rect x="520" y="290" width="50" height="22"/><rect x="592" y="290" width="50" height="22"/><rect x="664" y="290" width="50" height="22"/><rect x="736" y="290" width="50" height="22"/><rect x="808" y="290" width="50" height="22"/><rect x="876" y="290" width="30" height="22"/>
      <!-- F3 y=326 -->
      <rect x="304" y="326" width="50" height="22"/><rect x="376" y="326" width="50" height="22"/><rect x="448" y="326" width="50" height="22"/><rect x="520" y="326" width="50" height="22"/><rect x="592" y="326" width="50" height="22"/><rect x="664" y="326" width="50" height="22"/><rect x="736" y="326" width="50" height="22"/><rect x="808" y="326" width="50" height="22"/><rect x="876" y="326" width="30" height="22"/>
      <!-- F4 y=362 -->
      <rect x="304" y="362" width="50" height="22"/><rect x="376" y="362" width="50" height="22"/><rect x="448" y="362" width="50" height="22"/><rect x="520" y="362" width="50" height="22"/><rect x="592" y="362" width="50" height="22"/><rect x="664" y="362" width="50" height="22"/><rect x="736" y="362" width="50" height="22"/><rect x="808" y="362" width="50" height="22"/><rect x="876" y="362" width="30" height="22"/>
      <!-- F5 y=398 -->
      <rect x="304" y="398" width="50" height="18"/><rect x="376" y="398" width="50" height="18"/><rect x="448" y="398" width="50" height="18"/><rect x="520" y="398" width="50" height="18"/><rect x="592" y="398" width="50" height="18"/><rect x="664" y="398" width="50" height="18"/><rect x="736" y="398" width="50" height="18"/><rect x="808" y="398" width="50" height="18"/><rect x="876" y="398" width="30" height="18"/>
    </g>
    <!-- Window mullions (cross) -->
    <g stroke="#06030d" stroke-width="0.4" opacity="0.85">
      <line x1="329" y1="254" x2="329" y2="276"/><line x1="304" y1="265" x2="354" y2="265"/>
      <line x1="473" y1="290" x2="473" y2="312"/><line x1="448" y1="301" x2="498" y2="301"/>
      <line x1="617" y1="326" x2="617" y2="348"/><line x1="592" y1="337" x2="642" y2="337"/>
      <line x1="761" y1="362" x2="761" y2="384"/><line x1="736" y1="373" x2="786" y2="373"/>
    </g>

    <!-- Lit windows -->
    <g fill="#E8D5FF" filter="url(#bn-window-glow)" opacity="0.9">
      <rect x="448" y="254" width="50" height="22"/>
      <rect x="664" y="290" width="50" height="22"/>
      <rect x="376" y="326" width="50" height="22"/>
      <rect x="592" y="362" width="50" height="22"/>
      <rect x="808" y="398" width="50" height="18"/>
    </g>
    <g fill="#C9A8D6" opacity="0.78">
      <rect x="736" y="254" width="50" height="22"/>
      <rect x="304" y="290" width="50" height="22"/>
      <rect x="520" y="326" width="50" height="22"/>
      <rect x="808" y="362" width="50" height="22"/>
      <rect x="448" y="398" width="50" height="18"/>
      <rect x="664" y="398" width="50" height="18"/>
    </g>

    <!-- Ground floor entrance -->
    <rect x="586" y="392" width="28" height="28" fill="#04020a"/>
    <rect x="588" y="394" width="24" height="26" fill="#2d1b4e" opacity="0.65"/>

    <!-- NAME on sign -->
    <text x="600" y="200" text-anchor="middle"
          font-family="Impact, 'Arial Black', Haettenschweiler, 'Franklin Gothic Bold', sans-serif"
          font-size="62" font-weight="900" letter-spacing="6"
          fill="url(#bn-name)" filter="url(#bn-neon)">DORITOS0</text>

    <!-- Index label above the sign -->
    <text x="600" y="156" text-anchor="middle"
          font-family="Consolas, 'Courier New', monospace"
          font-size="9" letter-spacing="6"
          fill="#A78BCA" opacity="0.85">[ BLOCK / 0080 // SECTOR V ]</text>

    <!-- Underline tick under name -->
    <line x1="500" y1="214" x2="700" y2="214" stroke="#8B6BB5" stroke-width="0.6" opacity="0.7"/>
  </g>

  <!-- ===================== BUILDING 3: wide stocky right ===================== -->
  <g>
    <!-- Antenna -->
    <rect x="828" y="252" width="6" height="10" fill="#06030d"/>
    <line x1="831" y1="252" x2="831" y2="208" stroke="#3d2050" stroke-width="0.8"/>
    <line x1="826" y1="222" x2="836" y2="222" stroke="#3d2050" stroke-width="0.6"/>

    <!-- Body -->
    <rect x="932" y="262" width="186" height="158" fill="url(#bn-concrete)"/>
    <rect x="932" y="262" width="186" height="158" fill="none" stroke="#06030d" stroke-width="1"/>

    <g stroke="#06030d" stroke-width="0.6" opacity="0.85">
      <line x1="978" y1="262" x2="978" y2="420"/>
      <line x1="1024" y1="262" x2="1024" y2="420"/>
      <line x1="1070" y1="262" x2="1070" y2="420"/>
    </g>
    <g stroke="#2d1b4e" stroke-width="0.4" opacity="0.6">
      <line x1="932" y1="294" x2="1118" y2="294"/>
      <line x1="932" y1="326" x2="1118" y2="326"/>
      <line x1="932" y1="358" x2="1118" y2="358"/>
      <line x1="932" y1="390" x2="1118" y2="390"/>
    </g>

    <!-- Windows 4 cols x 5 rows -->
    <g fill="#04020a">
      <rect x="940" y="270" width="32" height="20"/><rect x="984" y="270" width="32" height="20"/><rect x="1030" y="270" width="32" height="20"/><rect x="1076" y="270" width="32" height="20"/>
      <rect x="940" y="302" width="32" height="20"/><rect x="984" y="302" width="32" height="20"/><rect x="1030" y="302" width="32" height="20"/><rect x="1076" y="302" width="32" height="20"/>
      <rect x="940" y="334" width="32" height="20"/><rect x="984" y="334" width="32" height="20"/><rect x="1030" y="334" width="32" height="20"/><rect x="1076" y="334" width="32" height="20"/>
      <rect x="940" y="366" width="32" height="20"/><rect x="984" y="366" width="32" height="20"/><rect x="1030" y="366" width="32" height="20"/><rect x="1076" y="366" width="32" height="20"/>
      <rect x="940" y="398" width="32" height="18"/><rect x="984" y="398" width="32" height="18"/><rect x="1030" y="398" width="32" height="18"/><rect x="1076" y="398" width="32" height="18"/>
    </g>
    <g fill="#E8D5FF" filter="url(#bn-window-glow)" opacity="0.85">
      <rect x="1030" y="302" width="32" height="20"/>
      <rect x="940" y="366" width="32" height="20"/>
      <rect x="984" y="398" width="32" height="18"/>
    </g>
    <g fill="#C9A8D6" opacity="0.7">
      <rect x="984" y="270" width="32" height="20"/>
      <rect x="1076" y="334" width="32" height="20"/>
      <rect x="1030" y="398" width="32" height="18"/>
    </g>
  </g>

  <!-- ===================== Mid building between 2 and 3 ===================== -->
  <g>
    <rect x="916" y="290" width="14" height="130" fill="#06030d"/>
    <g fill="#3d2050" opacity="0.85">
      <rect x="920" y="300" width="6" height="6"/>
      <rect x="920" y="320" width="6" height="6"/>
      <rect x="920" y="340" width="6" height="6"/>
      <rect x="920" y="360" width="6" height="6"/>
      <rect x="920" y="380" width="6" height="6"/>
    </g>
  </g>

  <!-- ===================== Ravens ===================== -->
  <g stroke="#04020a" stroke-width="1.5" fill="none" stroke-linecap="round">
    <path d="M 320 90 q 5 -4 10 0 q 5 -4 10 0"/>
    <path d="M 420 70 q 4 -3 8 0 q 4 -3 8 0"/>
    <path d="M 520 100 q 4 -3 8 0 q 4 -3 8 0"/>
    <path d="M 620 80 q 5 -4 10 0 q 5 -4 10 0"/>
    <path d="M 720 110 q 3 -2 6 0 q 3 -2 6 0"/>
    <path d="M 820 90 q 4 -3 8 0 q 4 -3 8 0"/>
    <path d="M 900 60 q 5 -4 10 0 q 5 -4 10 0"/>
    <path d="M 1100 130 q 3 -2 6 0 q 3 -2 6 0"/>
  </g>

  <!-- Fog at base -->
  <rect x="0" y="380" width="1200" height="100" fill="url(#bn-smog)"/>
  <ellipse cx="600" cy="430" rx="700" ry="22" fill="#D8C5F0" opacity="0.22"/>
  <ellipse cx="200" cy="440" rx="280" ry="14" fill="#D8C5F0" opacity="0.2"/>
  <ellipse cx="1000" cy="442" rx="320" ry="16" fill="#D8C5F0" opacity="0.2"/>

  <!-- Subtitle bar at the very bottom -->
  <g>
    <rect x="0" y="448" width="1200" height="32" fill="#06030d" opacity="0.85"/>
    <line x1="0" y1="448" x2="1200" y2="448" stroke="#3d2050" stroke-width="0.6"/>
    <line x1="0" y1="479" x2="1200" y2="479" stroke="#3d2050" stroke-width="0.6"/>
    <text x="600" y="468" text-anchor="middle"
          font-family="Consolas, 'Courier New', monospace"
          font-size="11" letter-spacing="10"
          fill="#C9A8D6" opacity="0.9">[ &#x25A0; ] &#x00B7;&#x00B7; EX TENEBRIS &#x00B7;&#x00B7; CODICEM &#x00B7;&#x00B7; FULL STACK DEVELOPER &#x00B7;&#x00B7; [ &#x25A0; ]</text>
  </g>

  <!-- Corner brutalist tick marks -->
  <g stroke="#5d3a8a" stroke-width="1" fill="none" opacity="0.85">
    <path d="M 12 12 L 36 12 L 36 18"/>
    <path d="M 1188 12 L 1164 12 L 1164 18"/>
  </g>
</svg>
