<svg xmlns="http://www.w3.org/2000/svg" width="1200" height="130" viewBox="0 0 1200 130" role="img" aria-label="IV. Vestigios">
  <defs>
    <linearGradient id="t4-bg" x1="0" y1="0" x2="0" y2="1">
      <stop offset="0%" stop-color="#06030d"/>
      <stop offset="100%" stop-color="#150a26"/>
    </linearGradient>
    <linearGradient id="t4-line" x1="0" y1="0" x2="1" y2="0">
      <stop offset="0%" stop-color="#8B6BB5" stop-opacity="0"/>
      <stop offset="50%" stop-color="#D8C5F0" stop-opacity="0.95"/>
      <stop offset="100%" stop-color="#8B6BB5" stop-opacity="0"/>
    </linearGradient>
    <linearGradient id="t4-text" x1="0" y1="0" x2="0" y2="1">
      <stop offset="0%" stop-color="#f4e7ff"/>
      <stop offset="100%" stop-color="#8B6BB5"/>
    </linearGradient>
    <filter id="t4-glow"><feGaussianBlur stdDeviation="1.4"/></filter>
  </defs>
  <rect width="1200" height="130" fill="url(#t4-bg)"/>

  <path d="M 120 110 L 120 56 Q 600 -50 1080 56 L 1080 110 L 1080 116 L 120 116 Z" fill="none" stroke="#8B6BB5" stroke-width="0.7" opacity="0.65"/>
  <path d="M 130 110 L 130 60 Q 600 -36 1070 60 L 1070 110" fill="none" stroke="#5d3a8a" stroke-width="0.5" opacity="0.5"/>

  <path d="M 592 6 L 608 6 L 612 20 L 588 20 Z" fill="#3d2050" stroke="#A78BCA" stroke-width="0.6"/>
  <line x1="600" y1="9" x2="600" y2="18" stroke="#C9A8D6" stroke-width="0.7"/>
  <line x1="596" y1="12" x2="604" y2="12" stroke="#C9A8D6" stroke-width="0.7"/>

  <line x1="40" y1="75" x2="380" y2="75" stroke="url(#t4-line)" stroke-width="0.9"/>
  <line x1="820" y1="75" x2="1160" y2="75" stroke="url(#t4-line)" stroke-width="0.9"/>

  <g fill="#A78BCA">
    <path d="M 380 75 l 5 -5 l 5 5 l -5 5 z"/>
    <path d="M 810 75 l 5 -5 l 5 5 l -5 5 z"/>
  </g>
  <!-- Raven decoration -->
  <g stroke="#04020a" stroke-width="1.4" fill="none" stroke-linecap="round">
    <path d="M 192 76 q 4 -3 8 0 q 4 -3 8 0"/>
    <path d="M 992 76 q 4 -3 8 0 q 4 -3 8 0"/>
  </g>

  <text x="600" y="68" text-anchor="middle"
        font-family="Georgia, serif" font-size="11" fill="#A78BCA"
        letter-spacing="7" opacity="0.9">
    &#x2627;  &#x00B7;  V E S T I G I A &#x00B7;  &#x2627;
  </text>
  <text x="600" y="100" text-anchor="middle"
        font-family="Georgia, serif" font-size="26" font-weight="700"
        fill="url(#t4-text)" letter-spacing="14" filter="url(#t4-glow)">
    IV &#x00B7;  V E S T I G I O S
  </text>
</svg>
