<svg xmlns="http://www.w3.org/2000/svg" width="1200" height="140" viewBox="0 0 1200 140" role="img" aria-label="IV. Vestigios">
  <defs>
    <linearGradient id="t4-bg" x1="0" y1="0" x2="0" y2="1">
      <stop offset="0%" stop-color="#06030d"/>
      <stop offset="100%" stop-color="#150a26"/>
    </linearGradient>
    <linearGradient id="t4-plate" x1="0" y1="0" x2="0" y2="1">
      <stop offset="0%" stop-color="#2d1b4e"/>
      <stop offset="55%" stop-color="#1a0a2e"/>
      <stop offset="100%" stop-color="#06030d"/>
    </linearGradient>
    <linearGradient id="t4-band" x1="0" y1="0" x2="0" y2="1">
      <stop offset="0%" stop-color="#4a2a6e"/>
      <stop offset="100%" stop-color="#2d1b4e"/>
    </linearGradient>
    <linearGradient id="t4-text" x1="0" y1="0" x2="0" y2="1">
      <stop offset="0%" stop-color="#f4e7ff"/>
      <stop offset="100%" stop-color="#A78BCA"/>
    </linearGradient>
    <filter id="t4-glow"><feGaussianBlur stdDeviation="1.4"/></filter>
  </defs>
  <rect width="1200" height="140" fill="url(#t4-bg)"/>
  <line x1="40" y1="14" x2="1160" y2="14" stroke="#5d3a8a" stroke-width="0.5" opacity="0.7"/>
  <line x1="40" y1="126" x2="1160" y2="126" stroke="#5d3a8a" stroke-width="0.5" opacity="0.7"/>
  <g stroke="#8B6BB5" stroke-width="0.9" fill="none">
    <path d="M 40 14 L 40 126"/><path d="M 1160 14 L 1160 126"/>
    <path d="M 40 14 L 60 14"/><path d="M 1160 14 L 1140 14"/>
    <path d="M 40 126 L 60 126"/><path d="M 1160 126 L 1140 126"/>
  </g>
  <rect x="80" y="28" width="1040" height="84" fill="url(#t4-plate)" stroke="#5d3a8a" stroke-width="0.5"/>
  <g fill="#06030d" stroke="#8B6BB5" stroke-width="0.5">
    <circle cx="92" cy="40" r="3"/><circle cx="1108" cy="40" r="3"/>
    <circle cx="92" cy="100" r="3"/><circle cx="1108" cy="100" r="3"/>
  </g>
  <g stroke="#8B6BB5" stroke-width="0.4">
    <line x1="89" y1="40" x2="95" y2="40"/><line x1="92" y1="37" x2="92" y2="43"/>
    <line x1="1105" y1="40" x2="1111" y2="40"/><line x1="1108" y1="37" x2="1108" y2="43"/>
    <line x1="89" y1="100" x2="95" y2="100"/><line x1="92" y1="97" x2="92" y2="103"/>
    <line x1="1105" y1="100" x2="1111" y2="100"/><line x1="1108" y1="97" x2="1108" y2="103"/>
  </g>
  <rect x="108" y="36" width="10" height="68" fill="url(#t4-band)"/>
  <rect x="1082" y="36" width="10" height="68" fill="url(#t4-band)"/>
  <g fill="#06030d">
    <rect x="108" y="36" width="10" height="8"/><rect x="108" y="60" width="10" height="8"/><rect x="108" y="84" width="10" height="8"/>
    <rect x="1082" y="36" width="10" height="8"/><rect x="1082" y="60" width="10" height="8"/><rect x="1082" y="84" width="10" height="8"/>
  </g>
  <text x="600" y="56" text-anchor="middle"
        font-family="Consolas, 'Courier New', monospace"
        font-size="11" letter-spacing="8" fill="#A78BCA" opacity="0.9">
    // SECTION IV &#x00B7; ACTIVITY TRACE //
  </text>
  <text x="600" y="94" text-anchor="middle"
        font-family="Impact, 'Arial Black', Haettenschweiler, sans-serif"
        font-size="36" font-weight="900" letter-spacing="12"
        fill="url(#t4-text)" filter="url(#t4-glow)">
    IV &#x00B7; VESTIGIOS
  </text>
</svg>
